<?xml version="1.0" encoding="UTF-8"?>
<svg version="1.1" xmlns="http://www.w3.org/2000/svg" width="524" height="168">
<path d="M0 0 C172.92 0 345.84 0 524 0 C524 55.44 524 110.88 524 168 C351.08 168 178.16 168 0 168 C0 112.56 0 57.12 0 0 Z " fill="#FDFDFD" transform="translate(0,0)"/>
<path d="M0 0 C17.49 0 34.98 0 53 0 C53.01417969 5.754375 53.02835938 11.50875 53.04296875 17.4375 C53.06303612 21.09250873 53.08456317 24.7473929 53.11132812 28.40234375 C53.15363187 34.19812871 53.19065593 39.99359777 53.19555664 45.78955078 C53.19984884 50.46475686 53.22838773 55.13925471 53.27343178 59.8142395 C53.28637739 61.5938809 53.2907249 63.37360718 53.28615379 65.15328979 C52.9922952 78.02627242 52.9922952 78.02627242 59 89 C63.27052857 91.84701905 66.99248123 91.48951706 72 91 C75.84677518 89.66199124 77.25446414 87.87136499 79.09869385 84.39074707 C81.18079824 80.08321526 81.57899378 76.48038273 81.54589844 71.74804688 C81.56140495 70.57586609 81.56140495 70.57586609 81.57722473 69.38000488 C81.60645677 66.82603802 81.60814768 64.27287037 81.609375 61.71875 C81.62436996 59.93654894 81.64109986 58.1543617 81.65948486 56.37219238 C81.70302304 51.70336235 81.72312734 47.03471973 81.73822021 42.36572266 C81.76129565 36.75205407 81.81370967 31.13859075 81.86116028 25.52508545 C81.92981954 17.01667028 81.96139363 8.50884351 82 0 C99.49 0 116.98 0 135 0 C135.103125 5.424375 135.20625 10.84875 135.3125 16.4375 C135.35802002 18.13060303 135.40354004 19.82370605 135.45043945 21.56811523 C135.66013935 35.02494939 135.66013935 35.02494939 131.27807617 40.86743164 C126.97817505 48.04214726 127.74975045 56.5345157 127.796875 64.58984375 C127.78902599 66.57512738 127.78114096 68.5604116 127.77118301 70.54568577 C127.74870259 75.40580454 127.74434371 80.2656255 127.77001953 85.12573242 C127.78356752 87.86338898 127.78112183 90.60016401 127.76153564 93.33778381 C127.74384101 95.9043305 127.74916032 98.47117153 127.78094482 101.0375824 C127.69110273 109.08669595 126.22416632 113.85771168 121 120 C120.28457031 120.93070312 119.56914062 121.86140625 118.83203125 122.8203125 C113.53178609 128.86894817 107.96321882 133.02252501 101 137 C100.24460937 137.50273437 99.48921875 138.00546875 98.7109375 138.5234375 C83.92356015 146.57765744 63.00674678 147.70059024 47 143 C31.10660581 137.8535676 17.33150303 127.76990811 9.63208008 112.78930664 C8.03166246 109.5508446 6.51036006 106.28150171 5 103 C4.50431267 102.11761658 4.50431267 102.11761658 3.99861145 101.21740723 C-1.19757537 89.67932381 -0.40563677 75.63496738 -0.29296875 63.28125 C-0.28735655 61.44324087 -0.28309416 59.60522718 -0.28010559 57.76721191 C-0.26878446 52.98658318 -0.23943087 48.20623857 -0.20599365 43.42572021 C-0.16954412 37.65935638 -0.15607084 31.89289624 -0.13863373 26.12644958 C-0.10978276 17.41743693 -0.05220786 8.70904466 0 0 Z " fill="#191819" transform="translate(18,11)"/>
<path d="M0 0 C16.83 0 33.66 0 51 0 C56.62383155 12.3724294 56.62383155 12.3724294 58.60546875 17.5859375 C59.03150391 18.70097656 59.45753906 19.81601562 59.89648438 20.96484375 C60.32251953 22.09019531 60.74855469 23.21554688 61.1875 24.375 C62.0557701 26.65372948 62.92425153 28.93237844 63.79296875 31.2109375 C64.1696167 32.20399902 64.54626465 33.19706055 64.93432617 34.22021484 C65.63232533 36.04092927 66.35312 37.85310527 67.09887695 39.65478516 C68.1572306 42.40919999 68.59319424 45.08455872 69 48 C69.94875 47.13375 70.8975 46.2675 71.875 45.375 C81.73961045 36.96223746 91.94473393 32.40664467 104.9375 32.625 C105.81704346 32.63587646 106.69658691 32.64675293 107.6027832 32.65795898 C119.83265416 32.95862842 127.15492716 36.36151889 135.94140625 44.8828125 C142.23697774 51.59990174 147.13532161 59.94702858 147.11352539 69.29760742 C147.11344986 70.37850143 147.11337433 71.45939545 147.11329651 72.57304382 C147.10813522 73.73874405 147.10297394 74.90444427 147.09765625 76.10546875 C147.09553383 77.89698112 147.09553383 77.89698112 147.09336853 79.72468567 C147.0877635 83.54564908 147.07521011 87.36655425 147.0625 91.1875 C147.05748565 93.77538978 147.05292263 96.36328048 147.04882812 98.95117188 C147.03864261 105.30082183 147.01906803 111.65034559 147 118 C135.12 118 123.24 118 111 118 C110.96261719 114.70257813 110.92523438 111.40515625 110.88671875 108.0078125 C110.84054433 104.8239874 110.78929581 101.64028179 110.73754883 98.45654297 C110.70423784 96.23916854 110.67622537 94.02170806 110.65356445 91.80419922 C110.62013181 88.62169623 110.56782218 85.43998635 110.51171875 82.2578125 C110.50532883 81.26194122 110.4989389 80.26606995 110.49235535 79.24002075 C110.47256119 78.31921722 110.45276703 77.3984137 110.43237305 76.44970703 C110.42126999 75.6369632 110.41016693 74.82421936 110.39872742 73.98684692 C110.16278126 71.59816831 110.16278126 71.59816831 107 70 C103.39132451 70.15827178 103.39132451 70.15827178 100 71 C98.83574024 73.32851952 98.84542008 74.76280184 98.79467773 77.35791016 C98.77473251 78.25869293 98.75478729 79.15947571 98.73423767 80.08755493 C98.71752518 81.06155243 98.70081268 82.03554993 98.68359375 83.0390625 C98.6524221 84.53305069 98.6524221 84.53305069 98.62062073 86.05722046 C98.55510958 89.24640854 98.49623296 92.43568058 98.4375 95.625 C98.39431627 97.78386293 98.35070203 99.9427173 98.30664062 102.1015625 C98.19942664 107.4009523 98.09766315 112.70042606 98 118 C93.21282458 118.04943465 88.42579773 118.08573582 83.63842773 118.10986328 C82.00982068 118.11992142 80.38123168 118.13356958 78.75268555 118.15087891 C76.41190128 118.17513574 74.07135576 118.18648483 71.73046875 118.1953125 C70.63813179 118.21079636 70.63813179 118.21079636 69.52372742 118.22659302 C65.78724931 118.22742249 64.19324944 118.12883296 61 116 C59.56145767 116.03014089 58.12342914 116.09573942 56.6875 116.1875 C54.28125 115.96484375 54.28125 115.96484375 52 115 C47.92725509 109.29279826 46.14349796 102.51152944 44.14453125 95.875 C42.06554406 89.04075221 39.59504998 82.4027645 37 75.75 C36.57460938 74.64398438 36.14921875 73.53796875 35.7109375 72.3984375 C33.55643622 66.83374402 31.32854836 61.33299419 28.82128906 55.91723633 C27.57611045 53.01046235 26.78152763 50.06098323 26 47 C25.34 47 24.68 47 24 47 C23.79246094 47.66902344 23.58492188 48.33804688 23.37109375 49.02734375 C20.41283689 58.24868836 16.74503809 67.06952455 13 76 C19.93 76 26.86 76 34 76 C36.01594449 81.32785329 38.01882623 86.65925191 40 92 C40.28810547 92.77408203 40.57621094 93.54816406 40.87304688 94.34570312 C41.71629083 96.62303545 42.54731226 98.90447383 43.375 101.1875 C43.63748535 101.89318115 43.8999707 102.5988623 44.17041016 103.32592773 C45.56755146 107.22077537 46 109.75717383 46 114 C25.87 114 5.74 114 -15 114 C-13.47036922 110.94073844 -12.20044163 108.85236723 -10.125 106.25 C-7.17987138 102.38048794 -4.90196362 98.47155529 -3 94 C-2.47664063 92.78957031 -1.95328125 91.57914062 -1.4140625 90.33203125 C0.27329549 85.76014244 0.49970622 81.52685027 0.4375 76.6875 C0.42920166 75.85154297 0.42090332 75.01558594 0.41235352 74.15429688 C0.10650263 62.93033117 -4.10839586 53.84016581 -11 45 C-12.62563086 43.61693099 -14.28370912 42.26881881 -16 41 C-15.4085067 36.61483346 -14.31399603 32.87874139 -12.63671875 28.7890625 C-12.16169922 27.62632813 -11.68667969 26.46359375 -11.19726562 25.265625 C-10.69904297 24.06421875 -10.20082031 22.8628125 -9.6875 21.625 C-9.20087891 20.43132813 -8.71425781 19.23765625 -8.21289062 18.0078125 C-5.68014085 11.84467442 -2.99032429 5.98064858 0 0 Z " fill="#6514F1" transform="translate(285,38)"/>
<path d="M0 0 C12.21 0 24.42 0 37 0 C37.05607422 6.73470703 37.05607422 6.73470703 37.11328125 13.60546875 C37.1514011 17.19075137 37.19247382 20.77597316 37.2355423 24.36119843 C37.28016153 28.14287794 37.31960519 31.92444771 37.34643555 35.70629883 C37.37249018 39.35047178 37.41290709 42.99423095 37.46318626 46.63814735 C37.47984053 48.02671464 37.4913638 49.41535348 37.49761391 50.80400658 C37.50726972 52.7525102 37.53704261 54.70088242 37.56762695 56.64916992 C37.58428154 58.31129768 37.58428154 58.31129768 37.60127258 60.00700378 C38.05251005 63.39415994 38.90802261 65.31103981 41 68 C44.18502524 68.53083754 46.04485189 68.54125059 48.875 66.9375 C50.58196395 63.99772876 50.18799766 61.32129197 50 58 C46.3850182 56.15047443 42.77948596 54.48088888 39 53 C38.97534902 48.03377651 38.95716351 43.06758834 38.94506836 38.10131836 C38.9400281 36.41055684 38.93319595 34.71979971 38.92456055 33.02905273 C38.91248143 30.60399293 38.90676877 28.17899056 38.90234375 25.75390625 C38.89718246 24.99348526 38.89202118 24.23306427 38.88670349 23.44960022 C38.88650762 21.6326743 38.93802723 19.81586873 39 18 C40.56626006 16.43373994 42.07075549 16.7542833 44.25 16.6875 C58.12234214 16.9440298 68.5844793 23.32016371 77.97265625 33.04296875 C79.51473141 34.95577298 80.763679 36.87831364 82 39 C82.48210937 39.72703125 82.96421875 40.4540625 83.4609375 41.203125 C89.0997589 51.11000458 88.52459348 64.02743258 86.1484375 74.89453125 C82.28359301 85.97638127 74.83839821 94.7134303 65 101 C64.32195312 101.43441406 63.64390625 101.86882812 62.9453125 102.31640625 C53.22971842 107.27792849 38.03707947 106.77186543 27.8125 103.5 C15.86657097 98.07518729 7.33336355 88.13039464 2.30004883 76.15942383 C-0.60308491 68.33965142 -0.63814469 60.84199151 -0.48828125 52.63671875 C-0.47892844 51.10831371 -0.47182404 49.57989344 -0.46684265 48.0514679 C-0.44796615 44.07440064 -0.39903991 40.09828092 -0.34332275 36.12158203 C-0.28259322 31.32575303 -0.26012146 26.52960297 -0.23105621 21.73349762 C-0.18295644 14.48834419 -0.08701273 7.24525993 0 0 Z " fill="#1B191B" transform="translate(193,53)"/>
<path d="M0 0 C8.22057279 6.93021833 13.88952651 14.54357954 17.3125 24.8125 C17.40049471 26.57658128 17.43014257 28.34383766 17.42602539 30.11010742 C17.42591209 31.73144844 17.42591209 31.73144844 17.42579651 33.38554382 C17.42063522 34.55124405 17.41547394 35.71694427 17.41015625 36.91796875 C17.4087413 38.11231033 17.40732635 39.30665192 17.40586853 40.53718567 C17.4002635 44.35814908 17.38771011 48.17905425 17.375 52 C17.36998565 54.58788978 17.36542263 57.17578048 17.36132812 59.76367188 C17.35114261 66.11332183 17.33156803 72.46284559 17.3125 78.8125 C5.4325 78.8125 -6.4475 78.8125 -18.6875 78.8125 C-18.72488281 75.51507813 -18.76226562 72.21765625 -18.80078125 68.8203125 C-18.84695567 65.6364874 -18.89820419 62.45278179 -18.94995117 59.26904297 C-18.98326216 57.05166854 -19.01127463 54.83420806 -19.03393555 52.61669922 C-19.06736819 49.43419623 -19.11967782 46.25248635 -19.17578125 43.0703125 C-19.18217117 42.07444122 -19.1885611 41.07856995 -19.19514465 40.05252075 C-19.22483589 38.67131546 -19.22483589 38.67131546 -19.25512695 37.26220703 C-19.27178154 36.04309128 -19.27178154 36.04309128 -19.28877258 34.79934692 C-19.52471874 32.41066831 -19.52471874 32.41066831 -22.6875 30.8125 C-26.29617549 30.97077178 -26.29617549 30.97077178 -29.6875 31.8125 C-30.85175976 34.14101952 -30.84207992 35.57530184 -30.89282227 38.17041016 C-30.91276749 39.07119293 -30.93271271 39.97197571 -30.95326233 40.90005493 C-30.97833107 42.36105118 -30.97833107 42.36105118 -31.00390625 43.8515625 C-31.02468735 44.84755463 -31.04546844 45.84354675 -31.06687927 46.86972046 C-31.13239042 50.05890854 -31.19126704 53.24818058 -31.25 56.4375 C-31.29318373 58.59636293 -31.33679797 60.7552173 -31.38085938 62.9140625 C-31.48807336 68.2134523 -31.58983685 73.51292606 -31.6875 78.8125 C-36.49298597 78.86186883 -41.29832494 78.89820443 -46.10400391 78.92236328 C-47.73944672 78.93243254 -49.37487149 78.94608881 -51.01025391 78.96337891 C-53.3584437 78.98758705 -55.70639588 78.99897357 -58.0546875 79.0078125 C-59.15476639 79.02329636 -59.15476639 79.02329636 -60.27706909 79.03909302 C-62.08212697 79.03949368 -63.8865783 78.93462755 -65.6875 78.8125 C-68.10496951 76.39503049 -67.93957143 75.8253714 -67.94628906 72.52148438 C-67.95259338 71.63295776 -67.95889771 70.74443115 -67.96539307 69.82897949 C-67.9613446 68.86447876 -67.95729614 67.89997803 -67.953125 66.90625 C-67.95503845 65.91177856 -67.9569519 64.91730713 -67.95892334 63.8927002 C-67.9602869 61.7810033 -67.95657861 59.66929807 -67.94824219 57.55761719 C-67.93763512 54.35331867 -67.94808479 51.14959244 -67.9609375 47.9453125 C-67.95961417 45.89062378 -67.9570482 43.8359354 -67.953125 41.78125 C-67.95717346 40.83294312 -67.96122192 39.88463623 -67.96539307 38.90759277 C-67.88249159 26.89191105 -65.55318083 15.50746674 -57.421875 6.2265625 C-42.77466024 -7.63762505 -17.14027666 -12.51240197 0 0 Z " fill="#1A191A" transform="translate(414.6875,77.1875)"/>
<path d="M0 0 C0.95648438 0.01353516 1.91296875 0.02707031 2.8984375 0.04101562 C5.2245811 0.07590778 7.5494653 0.12491661 9.875 0.1875 C10.48813761 4.16802828 11.01394483 8.03244332 11 12.0625 C11.00386719 13.20332031 11.00386719 13.20332031 11.0078125 14.3671875 C10.875 16.1875 10.875 16.1875 9.875 17.1875 C4.925 17.1875 -0.025 17.1875 -5.125 17.1875 C-5.455 38.9675 -5.785 60.7475 -6.125 83.1875 C-18.005 83.1875 -29.885 83.1875 -42.125 83.1875 C-42.26333302 75.43060425 -42.38260441 67.67804847 -42.45458984 59.92089844 C-42.48462005 57.28663571 -42.5254572 54.65247177 -42.57763672 52.01855469 C-42.65105411 48.21524577 -42.68459666 44.41326735 -42.7109375 40.609375 C-42.74190521 39.44637878 -42.77287292 38.28338257 -42.80477905 37.08514404 C-42.8088656 26.98338458 -39.65724939 18.72022228 -32.75 11.25 C-23.06217601 2.53731804 -12.89452906 -0.35315073 0 0 Z " fill="#6A17F2" transform="translate(193.125,30.8125)"/>
<path d="M0 0 C0.99 0.33 1.98 0.66 3 1 C3.93241647 3.30397101 4.6852533 5.49817015 5.375 7.875 C7.08260304 13.53216108 9.19913299 18.71954818 11.68896484 24.07763672 C13.89967636 29.00542385 15.7540669 34.06057765 17.625 39.125 C18.19734375 40.65447266 18.19734375 40.65447266 18.78125 42.21484375 C20.9745555 48.10651612 23.05360112 54.02248841 25 60 C25.391875 61.175625 25.78375 62.35125 26.1875 63.5625 C26.455625 64.366875 26.72375 65.17125 27 66 C25.68 66 24.36 66 23 66 C23 66.99 23 67.98 23 69 C2.21 69 -18.58 69 -40 69 C-39.505 68.01 -39.505 68.01 -39 67 C-8.805 67.495 -8.805 67.495 22 68 C19.4891541 59.21203934 16.95803346 50.75722947 13.75 42.25 C13.03360365 40.33960974 12.31991331 38.42820179 11.609375 36.515625 C11.29967773 35.69352539 10.98998047 34.87142578 10.67089844 34.02441406 C10 32 10 32 10 30 C3.07 30 -3.86 30 -11 30 C-9.87572663 23.25435978 -9.87572663 23.25435978 -8.4765625 20.1953125 C-8.1775 19.52886719 -7.8784375 18.86242187 -7.5703125 18.17578125 C-7.25835937 17.49902344 -6.94640625 16.82226562 -6.625 16.125 C-4.20824528 10.81018772 -2.00085163 5.48699802 0 0 Z " fill="#F3F2FD" transform="translate(309,84)"/>
<path d="M0 0 C2.75329021 1.79562405 4.52627461 3.05254922 6 6 C6.50866466 12.10397596 6.05703618 15.10769166 2 20 C-1.20173254 21.60086627 -4.52577059 21.49917089 -8 21 C-10.8100346 19.20636089 -12.50940468 17.98119065 -14 15 C-14.54802111 9.30058046 -13.60961802 6.43467357 -10 2 C-6.2626144 -0.4915904 -4.42668417 -0.45793285 0 0 Z " fill="#282428" transform="translate(411,32)"/>
<path d="M0 0 C3 1.8125 3 1.8125 5 5 C5.86482633 9.40335236 6.32317347 13.89105115 3.85546875 17.82421875 C1.45034749 20.03896101 -0.83356142 20.9653253 -4 21.625 C-8.19977529 20.75004681 -9.93868007 18.99012644 -13 16 C-14.60086627 12.79826746 -14.49917089 9.47422941 -14 6 C-10.35157466 0.28413364 -6.69651374 -1.06273545 0 0 Z " fill="#292529" transform="translate(383,29)"/>
<path d="M0 0 C2.625 0.4375 2.625 0.4375 4.9375 2.5625 C6.92606368 5.9504233 7.36365679 7.58007011 6.625 11.4375 C4.25 13.8125 4.25 13.8125 1.625 15.4375 C0.965 15.4375 0.305 15.4375 -0.375 15.4375 C-0.705 16.4275 -1.035 17.4175 -1.375 18.4375 C-4.375 20.4375 -4.375 20.4375 -6.75 20.4375 C-10.56792114 18.98305385 -12.12196058 16.78487285 -14.375 13.4375 C-14.9375 10.75 -14.9375 10.75 -14.375 8.4375 C-11.55548994 5.61798994 -7.91201983 4.20600992 -4.375 2.4375 C-2.375 0.4375 -2.375 0.4375 0 0 Z " fill="#403B42" transform="translate(448.375,64.5625)"/>
<path d="M0 0 C0.33 0 0.66 0 1 0 C2.19664355 17.64412728 2.54153815 35.32489513 3 53 C3.93972656 53.29003906 3.93972656 53.29003906 4.8984375 53.5859375 C5.71570313 53.84632812 6.53296875 54.10671875 7.375 54.375 C8.59316406 54.75785156 8.59316406 54.75785156 9.8359375 55.1484375 C12 56 12 56 14 58 C14.43244601 61.89201406 14.57846465 64.13230302 12.375 67.4375 C9.31881548 69.44814771 7.59350675 69.53520313 4 69 C1.44050454 67.14657225 1.02081202 66.06243607 0 63 C-0.08911173 60.96033519 -0.11760045 58.91782714 -0.11352539 56.8762207 C-0.11344986 55.61513992 -0.11337433 54.35405914 -0.11329651 53.05476379 C-0.10818989 51.67843588 -0.10297389 50.30210837 -0.09765625 48.92578125 C-0.09579086 47.51759389 -0.09436753 46.10940589 -0.09336853 44.70121765 C-0.08955288 40.9973267 -0.07973072 37.29347505 -0.06866455 33.58959961 C-0.05842997 29.80908744 -0.05386652 26.02856891 -0.04882812 22.24804688 C-0.0381076 14.83201335 -0.0210426 7.41601218 0 0 Z " fill="#E0DFDD" transform="translate(230,53)"/>
<path d="M0 0 C0.97239849 1.94479698 1.94441542 3.8897664 2.9140625 5.8359375 C3.82349268 7.6482552 4.75310585 9.45042608 5.6875 11.25 C6.78292027 13.54516628 7.52256077 15.51731598 8 18 C3.61703444 17.51300383 1.96816352 16.16604109 -1 13 C-1.99 12.67 -2.98 12.34 -4 12 C-3.690625 13.0725 -3.38125 14.145 -3.0625 15.25 C-2.33187904 17.82866222 -1.62517096 20.39512102 -1 23 C-2.32 23 -3.64 23 -5 23 C-6.37216028 20.61298157 -7.72243979 18.21744946 -9.0625 15.8125 C-9.45244141 15.13896484 -9.84238281 14.46542969 -10.24414062 13.77148438 C-11.95676317 10.66451427 -13.02169653 8.72584761 -12.9140625 5.125 C-12 3 -12 3 -9.3125 1.1875 C-5.94519627 -0.01964662 -3.54251095 -0.2530365 0 0 Z " fill="#1D1A1D" transform="translate(356,36)"/>
<path d="M0 0 C12.21 0 24.42 0 37 0 C37.33 21.45 37.66 42.9 38 65 C37.01 65 36.02 65 35 65 C34.67 44.21 34.34 23.42 34 2 C23.11 1.67 12.22 1.34 1 1 C1.33 24.43 1.66 47.86 2 72 C-0.42920859 68.35618712 -0.24285565 66.66387555 -0.22705078 62.32543945 C-0.22734283 61.652005 -0.22763489 60.97857056 -0.22793579 60.284729 C-0.22654344 58.06078161 -0.21098703 55.83717005 -0.1953125 53.61328125 C-0.19158203 52.07057376 -0.18873522 50.5278639 -0.18673706 48.9851532 C-0.17910329 44.92611136 -0.15945706 40.8672128 -0.1373291 36.80822754 C-0.11326674 31.93738516 -0.10408846 27.06649486 -0.09242249 22.19561005 C-0.07303245 14.79697373 -0.0347083 7.39865176 0 0 Z " fill="#555253" transform="translate(193,53)"/>
<path d="M0 0 C2.74062835 2.74062835 3.64273202 5.98851906 4.9375 9.5625 C5.20401367 10.28614746 5.47052734 11.00979492 5.74511719 11.75537109 C7.59491517 16.80552334 9.35802022 21.87832798 11 27 C11.5878125 28.7634375 11.5878125 28.7634375 12.1875 30.5625 C12.5896875 31.7690625 12.5896875 31.7690625 13 33 C11.68 33 10.36 33 9 33 C9 33.99 9 34.98 9 36 C-11.79 36 -32.58 36 -54 36 C-53.67 35.34 -53.34 34.68 -53 34 C-22.805 34.495 -22.805 34.495 8 35 C5.18461903 25.02045259 5.18461903 25.02045259 1.75 15.25 C-0.21637475 10.08058513 -0.42774566 5.47752083 0 0 Z " fill="#C3B3FB" transform="translate(323,117)"/>
<path d="M0 0 C0.33 0 0.66 0 1 0 C2.11460384 9.9698684 2.18619584 19.91001117 2.18530273 29.92797852 C2.18750388 32.69237346 2.20576448 35.45637762 2.22460938 38.22070312 C2.22754183 40.00520699 2.22952761 41.78971272 2.23046875 43.57421875 C2.23765427 44.38694748 2.24483978 45.19967621 2.25224304 46.03703308 C2.23039457 51.58636646 1.40691725 56.6351562 0 62 C-0.33 62 -0.66 62 -1 62 C-1.02318288 54.50682994 -1.04094543 47.01366361 -1.05181217 39.52046585 C-1.05702798 36.04097475 -1.06410199 32.56150821 -1.07543945 29.08203125 C-1.08839545 25.08072678 -1.09323898 21.07944807 -1.09765625 17.078125 C-1.10281754 15.83009094 -1.10797882 14.58205688 -1.11329651 13.29620361 C-1.11337204 12.13530212 -1.11344757 10.97440063 -1.11352539 9.77832031 C-1.115746 8.75683899 -1.11796661 7.73535767 -1.12025452 6.68292236 C-1.01297028 4.28937172 -0.6873403 2.28533257 0 0 Z " fill="#D9D7B8" transform="translate(146,58)"/>
<path d="M0 0 C16.83 0 33.66 0 51 0 C50.67 0.99 50.34 1.98 50 3 C37.79 3 25.58 3 13 3 C13 3.33 13 3.66 13 4 C8 5.66666667 3 7.33333333 -2 9 C-1.34 6.03 -0.68 3.06 0 0 Z " fill="#713AE7" transform="translate(285,38)"/>
<path d="M0 0 C0.33 0 0.66 0 1 0 C2.53653322 9.79539929 3.27538262 19.07092668 3 29 C-0.3 28.67 -3.6 28.34 -7 28 C-7 25 -7 25 -6 23 C-6.66 23 -7.32 23 -8 23 C-7 20 -7 20 -5.0625 18.625 C-1.75225848 16.01693092 -1.13040752 12.98051691 -0.5859375 8.88671875 C-0.51632812 7.83097656 -0.44671875 6.77523437 -0.375 5.6875 C-0.30023438 4.61886719 -0.22546875 3.55023438 -0.1484375 2.44921875 C-0.09945313 1.64097656 -0.05046875 0.83273438 0 0 Z " fill="#681AF7" transform="translate(344,125)"/>
<path d="M0 0 C3.8447546 0.55171366 5.50873547 2.21462331 8.125 5 C10.77060724 7.89285588 10.77060724 7.89285588 14 10 C14 10.66 14 11.32 14 12 C10.65976579 12.09278428 8.31243305 11.82810826 5 11 C2.36 14.3 -0.28 17.6 -3 21 C-4.32 20.67 -5.64 20.34 -7 20 C-5.54056236 16.7013731 -3.63590688 14.37403115 -1.25 11.6875 C1.32979107 8.6298326 1.32979107 8.6298326 2.01171875 4.859375 C1.42840643 2.7155283 1.42840643 2.7155283 0 0 Z " fill="#201A1E" transform="translate(429,43)"/>
<path d="M0 0 C2.4375 0.5 2.4375 0.5 4.25 1.625 C5.99707504 4.38353953 5.82953417 6.29838764 5.4375 9.5 C4.3125 11.875 4.3125 11.875 2.4375 13.5 C-0.77320255 13.96822746 -2.66246189 14.07002414 -5.4375 12.3125 C-7.00692256 9.78398588 -7.05171715 8.4353029 -6.5625 5.5 C-3.69509669 0.72099448 -3.69509669 0.72099448 0 0 Z " fill="#F4F4F4" transform="translate(407.5625,35.5)"/>
<path d="M0 0 C2.5 0.5 2.5 0.5 4.3125 2 C6.03328032 5.62269541 5.69948095 8.51038102 5.5 12.5 C3.08278807 14.02194825 1.76487742 14.51261321 -1.125 14.375 C-3.5 13.5 -3.5 13.5 -4.8125 11.75 C-5.9344293 8.07823139 -6.08997598 5.6489006 -4.3125 2.1875 C-2.5 0.5 -2.5 0.5 0 0 Z " fill="#F0F0F0" transform="translate(378.5,31.5)"/>
<path d="M0 0 C0.66 0 1.32 0 2 0 C2.02712351 2.39591038 2.0468982 4.79150957 2.0625 7.1875 C2.07087891 7.86103516 2.07925781 8.53457031 2.08789062 9.22851562 C2.11364638 14.50844518 2.11364638 14.50844518 1.51367188 17.10351562 C0.74714702 21.42578315 0.76178549 25.73108052 0.68359375 30.11328125 C0.66281265 31.08283249 0.64203156 32.05238373 0.62062073 33.05131531 C0.55541059 36.13830707 0.4963732 39.22538152 0.4375 42.3125 C0.39428763 44.40951364 0.35067248 46.50651903 0.30664062 48.60351562 C0.19975849 53.73559307 0.09841104 58.86775341 0 64 C-2 62 -2 62 -2.24050903 59.97518921 C-2.23606781 59.14468048 -2.23162659 58.31417175 -2.22705078 57.45849609 C-2.22689972 56.51767181 -2.22674866 55.57684753 -2.22659302 54.60751343 C-2.21627045 53.58976837 -2.20594788 52.57202332 -2.1953125 51.5234375 C-2.1924826 50.48305328 -2.18965271 49.44266907 -2.18673706 48.37075806 C-2.17551704 45.03872306 -2.15040915 41.70695414 -2.125 38.375 C-2.11497256 36.11979554 -2.1058463 33.86458688 -2.09765625 31.609375 C-2.07557178 26.07282546 -2.04207639 20.53643173 -2 15 C-1.67 15 -1.34 15 -1 15 C-1.020625 13.824375 -1.04125 12.64875 -1.0625 11.4375 C-1.06947261 7.52586533 -0.64250343 3.85502056 0 0 Z " fill="#6E13E7" transform="translate(186,49)"/>
<path d="M0 0 C3.05902372 0.24150187 4.58117433 0.59561659 6.8125 2.75 C8.19608294 5.37152557 8.24360427 7.07674878 8 10 C8.66 10 9.32 10 10 10 C10 8.35 10 6.7 10 5 C10.99 6.485 10.99 6.485 12 8 C12.53625 8.66 13.0725 9.32 13.625 10 C15 12 15 12 15 15 C11.79600132 14.64400015 10.34661156 14.35779258 8.0625 12 C5.46139855 9.4777198 3.54159687 9.32196335 0 9 C-0.87890625 2.84765625 -0.87890625 2.84765625 -1 1 C-0.67 0.67 -0.34 0.34 0 0 Z " fill="#3F3D48" transform="translate(349,39)"/>
<path d="M0 0 C2.17652998 3.91473476 2.26699483 7.29018098 2.1875 11.6875 C2.18685547 12.37650391 2.18621094 13.06550781 2.18554688 13.77539062 C2.14055525 18.85944475 2.14055525 18.85944475 1 20 C0.87778475 21.44184293 0.82227242 22.88943144 0.79467773 24.33618164 C0.77473251 25.2570607 0.75478729 26.17793976 0.73423767 27.12672424 C0.71752518 28.12775681 0.70081268 29.12878937 0.68359375 30.16015625 C0.66281265 31.17975937 0.64203156 32.19936249 0.62062073 33.24986267 C0.55501148 36.52067048 0.49618766 39.79156137 0.4375 43.0625 C0.39432558 45.27409728 0.35071166 47.48568603 0.30664062 49.69726562 C0.1993186 55.13142151 0.09757377 60.56566082 0 66 C-0.33 66 -0.66 66 -1 66 C-1.02566008 59.17220882 -1.04299488 52.34443038 -1.05493164 45.51660156 C-1.05991557 43.20084163 -1.06670513 40.88508476 -1.07543945 38.56933594 C-1.1228173 25.67141374 -1.07691288 12.85982104 0 0 Z " fill="#D3D1FE" transform="translate(188,48)"/>
<path d="M0 0 C0.33 0.66 0.66 1.32 1 2 C3.02463255 2.65213292 3.02463255 2.65213292 5 3 C4.071875 3.4021875 4.071875 3.4021875 3.125 3.8125 C0.7004767 4.95556848 0.7004767 4.95556848 -1 8 C-1.37569856 11.75698557 -1.1642235 12.75366476 1 16 C0.01 16.99 -0.98 17.98 -2 19 C-4.74825354 16.16586354 -5.92473669 14.51743527 -6.5 10.5625 C-5.91553559 6.39819107 -4.62713427 4.24528351 -2 1 C-1.34 0.67 -0.68 0.34 0 0 Z " fill="#3B343C" transform="translate(403,33)"/>
<path d="M0 0 C1.32 0 2.64 0 4 0 C4.495 1.485 4.495 1.485 5 3 C1.48656002 4.08325365 -1.75620272 4.12062751 -5.42089844 4.11352539 C-6.72194519 4.11344986 -8.02299194 4.11337433 -9.36346436 4.11329651 C-10.77876829 4.10819024 -12.19407184 4.10297425 -13.609375 4.09765625 C-15.06097363 4.09579035 -16.51257288 4.09436726 -17.96417236 4.09336853 C-21.77819569 4.08955688 -25.59218073 4.07973815 -29.40618896 4.06866455 C-33.30073529 4.05842135 -37.19528783 4.05386468 -41.08984375 4.04882812 C-48.72657993 4.03811465 -56.36328459 4.02105449 -64 4 C-63.67 3.34 -63.34 2.68 -63 2 C-42.21 2.33 -21.42 2.66 0 3 C0 2.01 0 1.02 0 0 Z " fill="#F4EEFE" transform="translate(332,150)"/>
<path d="M0 0 C0.41000244 0.48968262 0.82000488 0.97936523 1.24243164 1.48388672 C3.40934483 3.35310896 4.3024863 3.34330995 7.12109375 3.2578125 C8.38155518 3.23557617 8.38155518 3.23557617 9.66748047 3.21289062 C10.58158691 3.18388672 11.49569336 3.15488281 12.4375 3.125 C21.76805317 2.96634411 31.05009223 3.13646745 40.375 3.5 C41.62337646 3.54785645 42.87175293 3.59571289 44.15795898 3.64501953 C47.10545306 3.76005777 50.05277888 3.87819794 53 4 C53 4.33 53 4.66 53 5 C34.52 5 16.04 5 -3 5 C-1 1 -1 1 0 0 Z " fill="#7E22F7" transform="translate(273,147)"/>
<path d="M0 0 C1.32 0.33 2.64 0.66 4 1 C3.01 1.495 3.01 1.495 2 2 C1.07046451 4.32930361 1.07046451 4.32930361 0.25 7.1875 C-2.02735524 14.3559932 -4.95171893 21.13120666 -8 28 C-9.65 28 -11.3 28 -13 28 C-12.67 26.68 -12.34 25.36 -12 24 C-11.34 24 -10.68 24 -10 24 C-9.9175 23.443125 -9.835 22.88625 -9.75 22.3125 C-9 20 -9 20 -7.125 17.84375 C-4.5738128 14.42966124 -3.47823077 11.22366714 -2.25 7.1875 C-2.02957031 6.49462891 -1.80914062 5.80175781 -1.58203125 5.08789062 C-1.04496973 3.39497932 -0.52111292 1.69788842 0 0 Z " fill="#7522ED" transform="translate(307,83)"/>
<path d="M0 0 C2.6875 0.375 2.6875 0.375 5 2.5 C6.92253152 5.77542406 7.03468988 7.64270881 6.6875 11.375 C4.7075 12.365 4.7075 12.365 2.6875 13.375 C2.749375 12.26125 2.81125 11.1475 2.875 10 C2.7821875 8.205625 2.7821875 8.205625 2.6875 6.375 C1.6975 5.715 0.7075 5.055 -0.3125 4.375 C-0.6425 7.675 -0.9725 10.975 -1.3125 14.375 C-1.9725 14.375 -2.6325 14.375 -3.3125 14.375 C-3.33935938 12.22923363 -3.35883088 10.08337355 -3.375 7.9375 C-3.38660156 6.74253906 -3.39820313 5.54757813 -3.41015625 4.31640625 C-3.28453277 0.53262694 -3.28453277 0.53262694 0 0 Z " fill="#201C24" transform="translate(448.3125,64.625)"/>
<path d="M0 0 C0.33 0.66 0.66 1.32 1 2 C1.66 2.33 2.32 2.66 3 3 C2.01 4.485 2.01 4.485 1 6 C1.31627097 9.54223486 1.87548091 12.62644274 3 16 C0.625 16.1875 0.625 16.1875 -2 16 C-4.45193779 12.32209331 -4.71511798 9.27407725 -4 5 C-2 2 -2 2 0 0 Z " fill="#312932" transform="translate(373,30)"/>
<path d="M0 0 C0.99 0.33 1.98 0.66 3 1 C3.33 1.99 3.66 2.98 4 4 C3.01 4.33 2.02 4.66 1 5 C-0.33827304 6.66270287 -1.67189785 8.32916181 -3 10 C-3.66 10 -4.32 10 -5 10 C-5 11.32 -5 12.64 -5 14 C-4.443125 13.814375 -3.88625 13.62875 -3.3125 13.4375 C-0.600867 12.92448835 1.34371039 13.3359276 4 14 C4 14.33 4 14.66 4 15 C2.39620659 15.05416188 0.79188594 15.09286638 -0.8125 15.125 C-1.70582031 15.14820313 -2.59914063 15.17140625 -3.51953125 15.1953125 C-6 15 -6 15 -9 13 C-7.8125 10.125 -7.8125 10.125 -6 7 C-4.33607955 6.32650839 -2.66967972 5.6590841 -1 5 C-0.10613836 2.45224694 -0.10613836 2.45224694 0 0 Z " fill="#7F13FE" transform="translate(282,136)"/>
<path d="M0 0 C2.47923801 -0.02685095 4.9581884 -0.04676547 7.4375 -0.0625 C8.14455078 -0.07087891 8.85160156 -0.07925781 9.58007812 -0.08789062 C11.38693559 -0.09653588 13.19387603 -0.05220011 15 0 C16 1 16 1 16.0625 4.0625 C16.041875 5.031875 16.02125 6.00125 16 7 C14.68 7 13.36 7 12 7 C11.67 5.68 11.34 4.36 11 3 C10.484375 3.20625 9.96875 3.4125 9.4375 3.625 C5.96734329 4.15887026 3.29364209 3.07676761 0 2 C0 1.34 0 0.68 0 0 Z " fill="#6005F8" transform="translate(320,40)"/>
<path d="M0 0 C1.20628008 2.33214148 2.1654738 4.49642139 3 7 C0.30505778 9.53641621 -1.36603315 10.89649521 -5.0625 11.5 C-8 11 -8 11 -12 7 C-8.04 6.34 -4.08 5.68 0 5 C0 3.35 0 1.7 0 0 Z " fill="#262227" transform="translate(384,39)"/>
<path d="M0 0 C2.21854707 4.62197306 3.38281159 7.76824163 3 13 C2.34 13 1.68 13 1 13 C0.71125 12.071875 0.4225 11.14375 0.125 10.1875 C-0.8875 6.90208333 -0.8875 6.90208333 -3 4 C-4.98 4.33 -6.96 4.66 -9 5 C-9.33 4.01 -9.66 3.02 -10 2 C-6.5980513 -0.09350689 -3.94727588 -0.17942163 0 0 Z " fill="#211C27" transform="translate(356,36)"/>
<path d="M0 0 C0.99 1.32 1.98 2.64 3 4 C1.5 6 1.5 6 -1 8 C-3.75871627 8.35800135 -6.20097524 8.18660165 -9 8 C-9.33 7.34 -9.66 6.68 -10 6 C-9.67 5.34 -9.34 4.68 -9 4 C-7.865625 3.855625 -6.73125 3.71125 -5.5625 3.5625 C-3.7990625 3.2840625 -3.7990625 3.2840625 -2 3 C-1.34 2.01 -0.68 1.02 0 0 Z " fill="#201A1F" transform="translate(412,45)"/>
<path d="M0 0 C0.73605469 0.00451172 1.47210938 0.00902344 2.23046875 0.01367188 C4.02868158 0.02534858 5.82685197 0.04327989 7.625 0.0625 C7.625 1.7125 7.625 3.3625 7.625 5.0625 C6.965 4.7325 6.305 4.4025 5.625 4.0625 C5.955 3.4025 6.285 2.7425 6.625 2.0625 C5.861875 2.43375 5.09875 2.805 4.3125 3.1875 C2.9821875 3.620625 2.9821875 3.620625 1.625 4.0625 C0.635 3.4025 -0.355 2.7425 -1.375 2.0625 C-3.4701992 2.40043535 -5.31544036 3.04136594 -7.3125 3.75 C-10.11877606 4.17519334 -11.85229232 3.25377863 -14.375 2.0625 C-14.375 1.7325 -14.375 1.4025 -14.375 1.0625 C-9.51770355 0.08950844 -4.9249375 -0.05788805 0 0 Z " fill="#6605F4" transform="translate(193.375,32.9375)"/>
<path d="M0 0 C0.99 0.66 1.98 1.32 3 2 C3 3.32 3 4.64 3 6 C3.66 6.33 4.32 6.66 5 7 C5 10 5 10 3.5 11.6875 C3.005 12.120625 2.51 12.55375 2 13 C-0.46007056 9.36337396 -1.70608813 6.40867812 -2 2 C-1.34 1.34 -0.68 0.68 0 0 Z " fill="#6706F6" transform="translate(329,118)"/>
<path d="M0 0 C0 2.97 0 5.94 0 9 C-1.65 9 -3.3 9 -5 9 C-5.6875 6.1875 -5.6875 6.1875 -6 3 C-4.11242974 0.16864461 -3.46862106 0 0 0 Z " fill="#EFF0F0" transform="translate(444,71)"/>
<path d="M0 0 C0.33 0 0.66 0 1 0 C1 4.95 1 9.9 1 15 C-2.63 15 -6.26 15 -10 15 C-10 14.34 -10 13.68 -10 13 C-8.88625 13.061875 -7.7725 13.12375 -6.625 13.1875 C-5.42875 13.125625 -4.2325 13.06375 -3 13 C-2.34 12.01 -1.68 11.02 -1 10 C-1.165 9.401875 -1.33 8.80375 -1.5 8.1875 C-2.21497446 5.05948673 -1.13287253 2.93214067 0 0 Z " fill="#730DF9" transform="translate(184,98)"/>
<path d="M0 0 C1.4370809 -0.05422947 2.87475462 -0.09289723 4.3125 -0.125 C5.11300781 -0.14820313 5.91351563 -0.17140625 6.73828125 -0.1953125 C9 0 9 0 12 2 C7 3.66666667 2 5.33333333 -3 7 C-2.01 4.69 -1.02 2.38 0 0 Z " fill="#5D08F3" transform="translate(286,40)"/>
<path d="M0 0 C0.66 0.33 1.32 0.66 2 1 C0.68 1.33 -0.64 1.66 -2 2 C-1.814375 2.61875 -1.62875 3.2375 -1.4375 3.875 C-1 6 -1 6 -2 8 C-5.3 8 -8.6 8 -12 8 C-8.71268307 4.16479692 -4.74852829 1.67534656 0 0 Z " fill="#6D31EF" transform="translate(175,33)"/>
<path d="M0 0 C1 3 1 3 0.25 5.04296875 C-1.03956602 7.25538045 -2.22079821 9.1518703 -4 11 C-7.8125 11.5 -7.8125 11.5 -11 11 C-9.35 8.36 -7.7 5.72 -6 3 C-5.01 4.485 -5.01 4.485 -4 6 C-3.525625 5.195625 -3.05125 4.39125 -2.5625 3.5625 C-1 1 -1 1 0 0 Z " fill="#F3F2FD" transform="translate(281,132)"/>
<path d="M0 0 C0.33 0.66 0.66 1.32 1 2 C1.66 2 2.32 2 3 2 C2.96519531 3.12148437 2.96519531 3.12148437 2.9296875 4.265625 C2.91164063 5.25046875 2.89359375 6.2353125 2.875 7.25 C2.85179687 8.22453125 2.82859375 9.1990625 2.8046875 10.203125 C3.00137219 13.0196498 3.55431084 14.60949036 5 17 C4.34 17.33 3.68 17.66 3 18 C1.68 14.37 0.36 10.74 -1 7 C-1.66 7 -2.32 7 -3 7 C-2.67 5.35 -2.34 3.7 -2 2 C-1.34 2 -0.68 2 0 2 C0 1.34 0 0.68 0 0 Z " fill="#6505F6" transform="translate(323,102)"/>
<path d="M0 0 C0.66 0 1.32 0 2 0 C2.33 1.98 2.66 3.96 3 6 C3.99 5.34 4.98 4.68 6 4 C6.99 4.33 7.98 4.66 9 5 C8.67 5.99 8.34 6.98 8 8 C6.02 8 4.04 8 2 8 C2.33 8.99 2.66 9.98 3 11 C2.01 11 1.02 11 0 11 C0 7.37 0 3.74 0 0 Z " fill="#720AFE" transform="translate(152,100)"/>
<path d="M0 0 C0 0.66 0 1.32 0 2 C0.66 2 1.32 2 2 2 C2 3.98 2 5.96 2 8 C-1 8 -1 8 -2.6875 6.5 C-3.120625 6.005 -3.55375 5.51 -4 5 C-4.33 5.66 -4.66 6.32 -5 7 C-5 6.34 -5 5.68 -5 5 C-5.66 5 -6.32 5 -7 5 C-5.64703851 0.94111554 -4.27479763 0 0 0 Z " fill="#7602FE" transform="translate(343,143)"/>
<path d="M0 0 C0.33 0 0.66 0 1 0 C1.22366479 2.68699992 1.42927009 5.37343797 1.625 8.0625 C1.68945312 8.81466797 1.75390625 9.56683594 1.8203125 10.34179688 C2.17033804 15.39529063 1.66655961 19.21023136 0 24 C-0.66 24 -1.32 24 -2 24 C-2 24.66 -2 25.32 -2 26 C-2.66 26 -3.32 26 -4 26 C-3.69255859 25.195625 -3.69255859 25.195625 -3.37890625 24.375 C-0.61395989 16.33151967 -0.30302992 8.42214202 0 0 Z " fill="#C6D0A3" transform="translate(280,108)"/>
<path d="M0 0 C2 1.1875 2 1.1875 4 3 C4.25 5.6875 4.25 5.6875 4 8 C2.02 8.99 2.02 8.99 0 10 C-1 9 -1 9 -1.1328125 7.1875 C-1.13023437 6.465625 -1.12765625 5.74375 -1.125 5 C-1.12757813 4.278125 -1.13015625 3.55625 -1.1328125 2.8125 C-1 1 -1 1 0 0 Z " fill="#E3E0DC" transform="translate(448,68)"/>
<path d="M0 0 C0.39421143 0.4844458 0.78842285 0.9688916 1.19458008 1.46801758 C3.52073163 3.44186491 4.8642623 3.42012916 7.88671875 3.51171875 C9.2934082 3.56489258 9.2934082 3.56489258 10.72851562 3.61914062 C11.70498047 3.64169922 12.68144531 3.66425781 13.6875 3.6875 C14.67556641 3.72166016 15.66363281 3.75582031 16.68164062 3.79101562 C19.12098053 3.87350538 21.55996063 3.94265068 24 4 C24 4.33 24 4.66 24 5 C15.09 5 6.18 5 -3 5 C-1 1 -1 1 0 0 Z " fill="#8736F8" transform="translate(273,147)"/>
<path d="M0 0 C0.66 0 1.32 0 2 0 C2.2236337 1.41433206 2.42826476 2.83167618 2.625 4.25 C2.74101562 5.03890625 2.85703125 5.8278125 2.9765625 6.640625 C3.00319395 9.32152459 2.36592084 10.72694089 1 13 C0.01 12.01 -0.98 11.02 -2 10 C-1.34 10 -0.68 10 0 10 C-0.2784375 8.9171875 -0.2784375 8.9171875 -0.5625 7.8125 C-1.01995307 4.87173027 -0.73516357 2.85896942 0 0 Z " fill="#7203F5" transform="translate(349,80)"/>
<path d="M0 0 C1.97885999 2.96828999 3.25864997 5.77447054 4.625 9.0625 C5.07101562 10.12597656 5.51703125 11.18945312 5.9765625 12.28515625 C7 15 7 15 7 17 C6.01 16.67 5.02 16.34 4 16 C2.93097061 13.69747517 1.92824183 11.3627974 1 9 C0.67 8.67 0.34 8.34 0 8 C-0.14115161 5.32941149 -0.04247107 2.67567762 0 0 Z " fill="#773EE6" transform="translate(340,49)"/>
<path d="M0 0 C0.66 0 1.32 0 2 0 C2.02712351 2.39591038 2.0468982 4.79150957 2.0625 7.1875 C2.07087891 7.86103516 2.07925781 8.53457031 2.08789062 9.22851562 C2.10606538 12.95434131 1.89299392 16.3788042 1 20 C0.67 20 0.34 20 0 20 C-1.33257403 6.3667426 -1.33257403 6.3667426 0 0 Z " fill="#6E23E0" transform="translate(186,49)"/>
<path d="M0 0 C1.67542976 0.28604898 3.34385343 0.61781233 5 1 C4.6875 3.375 4.6875 3.375 4 6 C3.01 6.66 2.02 7.32 1 8 C-1 6 -1 6 -1.1875 3.4375 C-1 1 -1 1 0 0 Z " fill="#F6F6F5" transform="translate(349,39)"/>
<path d="M0 0 C0.33 0 0.66 0 1 0 C1 3.96 1 7.92 1 12 C1.66 12 2.32 12 3 12 C3.33 11.34 3.66 10.68 4 10 C5.32 10.33 6.64 10.66 8 11 C7.360625 11.268125 6.72125 11.53625 6.0625 11.8125 C3.66868314 12.88667752 3.66868314 12.88667752 3 16 C2.34 16 1.68 16 1 16 C0.03929566 13.11788698 -0.10581883 11.30149956 -0.0625 8.3125 C-0.05347656 7.50425781 -0.04445313 6.69601563 -0.03515625 5.86328125 C-0.01775391 4.94095703 -0.01775391 4.94095703 0 4 C-0.66 3.67 -1.32 3.34 -2 3 C-1.34 2.01 -0.68 1.02 0 0 Z " fill="#78737A" transform="translate(444,67)"/>
<path d="M0 0 C0.33 0.66 0.66 1.32 1 2 C2.32 2 3.64 2 5 2 C5 2.99 5 3.98 5 5 C6.32 5.33 7.64 5.66 9 6 C3.39 5.67 -2.22 5.34 -8 5 C-8 4.67 -8 4.34 -8 4 C-4.535 3.505 -4.535 3.505 -1 3 C-0.67 2.01 -0.34 1.02 0 0 Z " fill="#710BFB" transform="translate(322,146)"/>
<path d="M0 0 C2.475 0.495 2.475 0.495 5 1 C5 1.66 5 2.32 5 3 C4.34 3 3.68 3 3 3 C3.165 3.680625 3.33 4.36125 3.5 5.0625 C4.07089059 8.4164822 4.06659023 11.60389805 4 15 C1.27893306 12.27893306 1.39344428 10.15223689 0.875 6.375 C0.70742188 5.18648438 0.53984375 3.99796875 0.3671875 2.7734375 C0.24601562 1.85820313 0.12484375 0.94296875 0 0 Z " fill="#5D09EF" transform="translate(316,91)"/>
<path d="M0 0 C0.66 0.66 1.32 1.32 2 2 C1.67028521 5.29714793 1.3773161 6.6226839 -1 9 C-3.125 8.625 -3.125 8.625 -5 8 C-3.62845496 5.04590299 -2.01136276 2.55991624 0 0 Z " fill="#363035" transform="translate(427,55)"/>
<path d="M0 0 C3.3 0 6.6 0 10 0 C10 0.33 10 0.66 10 1 C7.69 1.33 5.38 1.66 3 2 C2.67 5.96 2.34 9.92 2 14 C0 12 0 12 -0.1953125 9.1796875 C-0.17210938 8.08914062 -0.14890625 6.99859375 -0.125 5.875 C-0.10695313 4.77929688 -0.08890625 3.68359375 -0.0703125 2.5546875 C-0.04710938 1.71164062 -0.02390625 0.86859375 0 0 Z " fill="#140D11" transform="translate(101,12)"/>
<path d="M0 0 C0.48210937 0.42152344 0.96421875 0.84304687 1.4609375 1.27734375 C2.09257812 1.82519531 2.72421875 2.37304688 3.375 2.9375 C4.00148438 3.48277344 4.62796875 4.02804688 5.2734375 4.58984375 C6.95632334 6.06958624 6.95632334 6.06958624 9 7 C9 7.66 9 8.32 9 9 C5.85375007 9.26218749 4.38162983 9.24754367 1.6875 7.5 C1.130625 7.005 0.57375 6.51 0 6 C0.33 5.34 0.66 4.68 1 4 C0.60061233 1.90178785 0.60061233 1.90178785 0 0 Z " fill="#393039" transform="translate(434,46)"/>
<path d="M0 0 C1.77706209 2.66559313 2.87548273 5.0280615 4 8 C1.625 8.1875 1.625 8.1875 -1 8 C-3 5 -3 5 -3 2 C-2.01 1.34 -1.02 0.68 0 0 Z " fill="#433B43" transform="translate(372,38)"/>
<path d="M0 0 C0.99 0.33 1.98 0.66 3 1 C3.33 1.99 3.66 2.98 4 4 C3.01 4.33 2.02 4.66 1 5 C-0.70586575 6.62652316 -2.3777546 8.29006566 -4 10 C-4.33 8.68 -4.66 7.36 -5 6 C-3.68 5.67 -2.36 5.34 -1 5 C-0.67 3.35 -0.34 1.7 0 0 Z " fill="#7109FD" transform="translate(282,136)"/>
<path d="M0 0 C2.64 0 5.28 0 8 0 C8.33 0.99 8.66 1.98 9 3 C8.34 3.66 7.68 4.32 7 5 C6.67 4.67 6.34 4.34 6 4 C3.67182036 3.63239269 1.3381615 3.29758419 -1 3 C-0.67 2.01 -0.34 1.02 0 0 Z " fill="#1A171C" transform="translate(375,29)"/>
<path d="M0 0 C0.99 0 1.98 0 3 0 C3.99 2.97 4.98 5.94 6 9 C4.35 9 2.7 9 1 9 C0.67 6.03 0.34 3.06 0 0 Z " fill="#DEEAF9" transform="translate(330,141)"/>
<path d="M0 0 C0.6875 1.6875 0.6875 1.6875 1 4 C-0.3125 6.75 -0.3125 6.75 -2 9 C-2.66 9 -3.32 9 -4 9 C-4.12375 9.804375 -4.2475 10.60875 -4.375 11.4375 C-4.58125 12.283125 -4.7875 13.12875 -5 14 C-5.99 14.495 -5.99 14.495 -7 15 C-5.34292168 9.35086937 -3.52237988 4.73699363 0 0 Z " fill="#171B41" transform="translate(356,85)"/>
<path d="M0 0 C1.32 0 2.64 0 4 0 C4.36923077 5.53846154 4.36923077 5.53846154 2.5 7.875 C1.7575 8.431875 1.7575 8.431875 1 9 C-0.4783226 6.04335481 -0.06032783 3.25770263 0 0 Z " fill="#1B161A" transform="translate(413,40)"/>
<path d="M0 0 C0.99 0.33 1.98 0.66 3 1 C3 1.66 3 2.32 3 3 C4.65 3.33 6.3 3.66 8 4 C7.67 4.66 7.34 5.32 7 6 C4.03 5.67 1.06 5.34 -2 5 C-2 4.01 -2 3.02 -2 2 C-1.34 2.33 -0.68 2.66 0 3 C0 2.01 0 1.02 0 0 Z " fill="#983FFD" transform="translate(339,148)"/>
<path d="M0 0 C2.20892172 3.31338258 3.08787021 6.14098934 4 10 C3.67 10.66 3.34 11.32 3 12 C2.01 11.67 1.02 11.34 0 11 C0 7.37 0 3.74 0 0 Z " fill="#792FE7" transform="translate(336,39)"/>
<path d="M0 0 C0.99 0 1.98 0 3 0 C3.33 1.98 3.66 3.96 4 6 C2.68 6.33 1.36 6.66 0 7 C-0.38133299 5.0085944 -0.71325582 3.00720923 -1 1 C-0.67 0.67 -0.34 0.34 0 0 Z " fill="#18161B" transform="translate(344,39)"/>
<path d="M0 0 C0.99 0.33 1.98 0.66 3 1 C3 2.98 3 4.96 3 7 C1.68 7 0.36 7 -1 7 C-1.66 5.35 -2.32 3.7 -3 2 C-2.01 2 -1.02 2 0 2 C0 1.34 0 0.68 0 0 Z " fill="#6F03F5" transform="translate(333,40)"/>
<path d="M0 0 C3.5718623 3.5718623 4 8.10186234 4 13 C3.01 13 2.02 13 1 13 C0.67 8.71 0.34 4.42 0 0 Z " fill="#5C42E0" transform="translate(327,138)"/>
<path d="M0 0 C0.8723412 2.99480917 1.10829766 5.63575911 1.0625 8.75 C1.05347656 9.54921875 1.04445313 10.3484375 1.03515625 11.171875 C1.01775391 12.07679687 1.01775391 12.07679687 1 13 C0.34 13 -0.32 13 -1 13 C-2.5029278 10.46875317 -3.2006987 8.79254012 -2.46484375 5.88671875 C-1.7028501 3.89135862 -0.89496636 1.93909378 0 0 Z " fill="#8038F6" transform="translate(274,63)"/>
<path d="M0 0 C5 7.5 5 7.5 5 10 C3.68 10 2.36 10 1 10 C0.37542727 6.56484998 0 3.50935186 0 0 Z " fill="#2A2630" transform="translate(350,49)"/>
<path d="M0 0 C0.99 1.32 1.98 2.64 3 4 C2.01 5.485 2.01 5.485 1 7 C-1.64 6.34 -4.28 5.68 -7 5 C-7 4.67 -7 4.34 -7 4 C-6.030625 3.71125 -5.06125 3.4225 -4.0625 3.125 C-0.89335797 2.35785318 -0.89335797 2.35785318 0 0 Z " fill="#353137" transform="translate(412,45)"/>
<path d="M0 0 C2.18975773 3.28463659 2.99806563 6.20696275 4 10 C3.01 10.495 3.01 10.495 2 11 C2 10.01 2 9.02 2 8 C1.01 7.67 0.02 7.34 -1 7 C-0.67 4.69 -0.34 2.38 0 0 Z " fill="#8034EB" transform="translate(349,72)"/>
<path d="M0 0 C0.99 0.33 1.98 0.66 3 1 C2.835 2.03125 2.67 3.0625 2.5 4.125 C2.06678152 7.48244326 1.91764297 10.62336157 2 14 C-0.08557757 10.87163364 -0.36393593 9.51376966 -0.6875 5.875 C-0.77386719 4.98554687 -0.86023438 4.09609375 -0.94921875 3.1796875 C-0.96597656 2.46039063 -0.98273438 1.74109375 -1 1 C-0.67 0.67 -0.34 0.34 0 0 Z " fill="#690EFE" transform="translate(287,98)"/>
<path d="M0 0 C0.66 0 1.32 0 2 0 C2 0.66 2 1.32 2 2 C2.639375 2.185625 3.27875 2.37125 3.9375 2.5625 C6 4 6 4 6.75 7.625 C6.8325 8.73875 6.915 9.8525 7 11 C4.59424393 8.81482901 3.20464419 6.74080329 1.8125 3.8125 C1.46832031 3.09707031 1.12414062 2.38164063 0.76953125 1.64453125 C0.51558594 1.10183594 0.26164062 0.55914062 0 0 Z " fill="#732CDB" transform="translate(276,85)"/>
<path d="M0 0 C1.32 0 2.64 0 4 0 C4.33 0.99 4.66 1.98 5 3 C1.84493858 3.93619813 -0.96586502 4.1057123 -4.25 4.0625 C-5.14203125 4.05347656 -6.0340625 4.04445312 -6.953125 4.03515625 C-7.62859375 4.02355469 -8.3040625 4.01195312 -9 4 C-9 3.67 -9 3.34 -9 3 C-6.03 3 -3.06 3 0 3 C0 2.01 0 1.02 0 0 Z " fill="#EAF1F9" transform="translate(332,150)"/>
<path d="M0 0 C0.66 0 1.32 0 2 0 C3.17571451 3.67410785 3.07366746 7.16929183 3 11 C0.60236815 8.60236815 0.65719414 7.66726502 0.375 4.375 C0.30023438 3.55773437 0.22546875 2.74046875 0.1484375 1.8984375 C0.09945313 1.27195312 0.05046875 0.64546875 0 0 Z " fill="#6B25E3" transform="translate(314,89)"/>
<path d="M0 0 C0.33 1.32 0.66 2.64 1 4 C-0.65 4.33 -2.3 4.66 -4 5 C-4 3.68 -4 2.36 -4 1 C-2.68 0.67 -1.36 0.34 0 0 Z " fill="#291F26" transform="translate(444,80)"/>
<path d="M0 0 C1.20628008 2.33214148 2.1654738 4.49642139 3 7 C2.01 7.66 1.02 8.32 0 9 C-1.32 8.01 -2.64 7.02 -4 6 C-2.68 5.67 -1.36 5.34 0 5 C0 3.35 0 1.7 0 0 Z " fill="#343036" transform="translate(384,39)"/>
<path d="M0 0 C0.33 0 0.66 0 1 0 C1 2.31 1 4.62 1 7 C-0.98 7.33 -2.96 7.66 -5 8 C-4.19185349 6.66402348 -3.37836819 5.331275 -2.5625 4 C-2.11003906 3.2575 -1.65757812 2.515 -1.19140625 1.75 C-0.79824219 1.1725 -0.40507812 0.595 0 0 Z " fill="#DFE7C1" transform="translate(275,135)"/>
<path d="M0 0 C0.66 0.33 1.32 0.66 2 1 C1.67 3.64 1.34 6.28 1 9 C0.34 9 -0.32 9 -1 9 C-1.09765625 2.84765625 -1.09765625 2.84765625 -1 1 C-0.67 0.67 -0.34 0.34 0 0 Z " fill="#6805F5" transform="translate(287,118)"/>
<path d="M0 0 C3.77545388 1.09068668 6.47043472 1.9083091 9 5 C8.01 5.495 8.01 5.495 7 6 C3.9375 4.75 3.9375 4.75 1 3 C0.67 2.01 0.34 1.02 0 0 Z " fill="#443C3F" transform="translate(251,73)"/>
<path d="M0 0 C-0.99 0.33 -1.98 0.66 -3 1 C-3 1.66 -3 2.32 -3 3 C-4.98 3.66 -6.96 4.32 -9 5 C-9.33 4.01 -9.66 3.02 -10 2 C-6.5980513 -0.09350689 -3.94727588 -0.17942163 0 0 Z " fill="#352C39" transform="translate(356,36)"/>
<path d="M0 0 C2.95183101 2.95183101 3.08663988 5.95511947 4 10 C2.68 10 1.36 10 0 10 C0 6.7 0 3.4 0 0 Z " fill="#CDCEF5" transform="translate(323,117)"/>
<path d="M0 0 C1.4606285 2.64738916 2 3.89448334 2 7 C1.04788888 9.02323613 0.05226728 11.02699884 -1 13 C-2.12758089 9.61725734 -1.81750262 8.23221777 -1.0625 4.8125 C-0.86785156 3.91144531 -0.67320312 3.01039062 -0.47265625 2.08203125 C-0.23869141 1.05142578 -0.23869141 1.05142578 0 0 Z " fill="#5A1BD1" transform="translate(352,82)"/>
<path d="M0 0 C0.99 0 1.98 0 3 0 C3 2.64 3 5.28 3 8 C2.34 8 1.68 8 1 8 C0.67 5.36 0.34 2.72 0 0 Z " fill="#6606F8" transform="translate(315,116)"/>
<path d="M0 0 C1.485 0.99 1.485 0.99 3 2 C3.1875 5.125 3.1875 5.125 3 8 C2.34 8 1.68 8 1 8 C0.67 5.36 0.34 2.72 0 0 Z " fill="#EAF5FE" transform="translate(326,130)"/>
<path d="M0 0 C0.598125 0.20625 1.19625 0.4125 1.8125 0.625 C1.1525 0.625 0.4925 0.625 -0.1875 0.625 C0.1425 1.615 0.4725 2.605 0.8125 3.625 C-0.1775 3.955 -1.1675 4.285 -2.1875 4.625 C-2.1875 3.965 -2.1875 3.305 -2.1875 2.625 C-3.1775 2.295 -4.1675 1.965 -5.1875 1.625 C-2.1875 -0.375 -2.1875 -0.375 0 0 Z " fill="#6305F0" transform="translate(313.1875,115.375)"/>
<path d="M0 0 C2 1.3125 2 1.3125 4 3 C4 3.99 4 4.98 4 6 C2.35 5.67 0.7 5.34 -1 5 C-0.67 3.35 -0.34 1.7 0 0 Z " fill="#37313B" transform="translate(360,48)"/>
<path d="M0 0 C0.33 1.32 0.66 2.64 1 4 C-1.31 4 -3.62 4 -6 4 C-4.63772207 1.27544414 -3.11734545 0 0 0 Z " fill="#36323C" transform="translate(355,44)"/>
<path d="M0 0 C0.99 0 1.98 0 3 0 C3 2.31 3 4.62 3 7 C2.34 7 1.68 7 1 7 C0.67 4.69 0.34 2.38 0 0 Z " fill="#1D181C" transform="translate(385,38)"/>
<path d="M0 0 C0.33 0.66 0.66 1.32 1 2 C3.02463255 2.65213292 3.02463255 2.65213292 5 3 C2.75 4.125 2.75 4.125 0 5 C-2.3125 4.125 -2.3125 4.125 -4 3 C-2.68 2.01 -1.36 1.02 0 0 Z " fill="#423E42" transform="translate(403,33)"/>
<path d="M0 0 C2.96175123 0.61277612 4.38058783 1.25372522 7 3 C7 3.66 7 4.32 7 5 C4.11424181 4.60196439 3.17810487 4.20990931 1.25 1.9375 C0.8375 1.298125 0.425 0.65875 0 0 Z " fill="#2D272C" transform="translate(205,144)"/>
<path d="M0 0 C1.7074998 1.28062485 3.37373596 2.61767557 5 4 C5 4.66 5 5.32 5 6 C3.35 6.33 1.7 6.66 0 7 C0.33 6.01 0.66 5.02 1 4 C0.61067144 1.85744207 0.61067144 1.85744207 0 0 Z " fill="#2E272D" transform="translate(434,46)"/>
<path d="M0 0 C1.67542976 0.28604898 3.34385343 0.61781233 5 1 C4.67 1.66 4.34 2.32 4 3 C3.01 3 2.02 3 1 3 C0.34 3.99 -0.32 4.98 -1 6 C-1.042721 4.33388095 -1.04063832 2.66617115 -1 1 C-0.67 0.67 -0.34 0.34 0 0 Z " fill="#C8C7C4" transform="translate(349,39)"/>
</svg>
